# Blender 4.1.1
# www.blender.org
o windmill.001
v 0.008332 0.039394 -0.414673
v 0.012240 0.036359 -0.414673
v -0.056377 0.031253 -0.414673
v -0.059411 0.027345 -0.414673
v -0.051270 -0.037365 -0.414673
v -0.047363 -0.040398 -0.414673
v 0.017347 -0.032258 -0.414673
v 0.020381 -0.028350 -0.414673
v 0.008332 0.039394 -0.341628
v -0.056377 0.031253 -0.341628
v -0.059411 0.027345 -0.341628
v -0.051270 -0.037365 -0.341628
v -0.047363 -0.040398 -0.341628
v 0.017347 -0.032258 -0.341628
v 0.012240 0.036359 -0.341628
v 0.020381 -0.028350 -0.341628
v -0.982898 -0.071765 -0.414674
v -0.974757 -0.136474 -0.414674
v -0.982898 -0.071765 -0.341628
v -0.974757 -0.136474 -0.341628
v 0.948277 0.070590 -0.414673
v 0.940136 0.135300 -0.414673
v 0.940136 0.135300 -0.341628
v 0.948277 0.070590 -0.341628
v -0.091558 0.965558 -0.414674
v -0.156268 0.957418 -0.414674
v -0.091558 0.965558 -0.341628
v -0.156268 0.957418 -0.341628
v 0.050966 -0.961209 -0.414673
v 0.115677 -0.953067 -0.414673
v 0.050966 -0.961209 -0.341628
v 0.115677 -0.953067 -0.341628
v 0.034993 0.098472 -0.462735
v 0.089348 0.030826 -0.462735
v 0.079949 -0.055441 -0.462735
v 0.012304 -0.109795 -0.462735
v -0.073964 -0.100398 -0.462735
v -0.128319 -0.032751 -0.462735
v -0.118920 0.053516 -0.462735
v -0.051275 0.107871 -0.462735
v 0.034993 0.098472 -0.262736
v 0.089348 0.030826 -0.262736
v 0.079949 -0.055441 -0.262736
v 0.012304 -0.109795 -0.262736
v -0.073964 -0.100398 -0.262736
v -0.128319 -0.032751 -0.262736
v -0.118920 0.053516 -0.262736
v -0.051275 0.107871 -0.262736
v 0.004661 0.043109 -0.462735
v 0.028752 0.013127 -0.462735
v 0.024587 -0.025109 -0.462735
v -0.005396 -0.049201 -0.462735
v -0.043632 -0.045035 -0.462735
v -0.067724 -0.015053 -0.462735
v -0.063558 0.023184 -0.462735
v -0.033576 0.047275 -0.462735
v 0.004661 0.043109 -0.493995
v 0.028752 0.013127 -0.493995
v 0.024587 -0.025109 -0.493995
v -0.005396 -0.049201 -0.493995
v -0.043632 -0.045035 -0.493995
v -0.067724 -0.015053 -0.493995
v -0.063558 0.023184 -0.493995
v -0.033576 0.047275 -0.493995
v 0.008332 0.039394 -0.390325
v 0.008332 0.039394 -0.365977
v -0.056377 0.031253 -0.390325
v -0.056377 0.031253 -0.365977
v -0.091558 0.965558 -0.390325
v -0.091558 0.965558 -0.365977
v -0.156268 0.957418 -0.390325
v -0.156268 0.957418 -0.365977
v -0.238973 0.011558 -0.334849
v -0.238973 0.011558 -0.310500
v -0.338864 0.937724 -0.334849
v -0.338864 0.937724 -0.310500
v -0.059411 0.027345 -0.390325
v -0.059411 0.027345 -0.365977
v -0.051270 -0.037365 -0.390325
v -0.051270 -0.037365 -0.365977
v -0.982898 -0.071765 -0.390325
v -0.982898 -0.071765 -0.365977
v -0.974757 -0.136474 -0.390325
v -0.974757 -0.136474 -0.365977
v -0.032645 -0.210910 -0.334849
v -0.032645 -0.210910 -0.310500
v -0.956132 -0.310020 -0.334849
v -0.956132 -0.310020 -0.310500
v -0.047363 -0.040398 -0.390325
v -0.047363 -0.040398 -0.365977
v 0.017347 -0.032258 -0.390325
v 0.017347 -0.032258 -0.365977
v 0.050966 -0.961209 -0.390325
v 0.050966 -0.961209 -0.365977
v 0.115677 -0.953067 -0.390325
v 0.115677 -0.953067 -0.365977
v 0.192791 -0.013523 -0.334849
v 0.192791 -0.013523 -0.310500
v 0.291120 -0.934333 -0.334849
v 0.291120 -0.934333 -0.310500
v 0.012240 0.036359 -0.365977
v 0.012240 0.036359 -0.390325
v 0.020381 -0.028350 -0.390325
v 0.020381 -0.028350 -0.365977
v 0.940136 0.135300 -0.365977
v 0.940136 0.135300 -0.390325
v 0.948277 0.070590 -0.390325
v 0.948277 0.070590 -0.365977
v -0.008544 0.231278 -0.310500
v -0.008544 0.231278 -0.334849
v 0.919352 0.330218 -0.310500
v 0.919352 0.330218 -0.334849
vn 0.9942 0.1072 -0.0000
vn -0.1067 0.9943 -0.0000
vn -0.9943 -0.1062 -0.0000
vn -0.0000 -0.0000 -1.0000
vn -0.9922 -0.1248 -0.0000
vn 0.1067 -0.9943 -0.0000
vn -0.0000 -0.0000 1.0000
vn 0.9922 0.1248 -0.0000
vn 0.1060 -0.9944 -0.0000
vn -0.1060 0.9944 -0.0000
vn -0.1248 0.9922 -0.0000
vn -0.9942 -0.1072 -0.0000
vn 0.1248 -0.9922 -0.0000
vn 0.9943 0.1062 -0.0000
vn -0.6264 0.7795 -0.0000
vn -0.7795 -0.6264 -0.0000
vn 0.6264 -0.7795 -0.0000
vn 0.7795 0.6264 -0.0000
vn 0.1083 0.9941 -0.0000
vn -0.9941 0.1083 -0.0000
vn -0.1083 -0.9941 -0.0000
vn 0.9941 -0.1083 -0.0000
vn 0.2875 0.0310 0.9573
vn -0.1072 0.9942 -0.0000
vn 0.1072 -0.9942 -0.0000
vn -0.2875 -0.0310 -0.9573
vn -0.0323 0.3012 0.9530
vn -0.9943 -0.1067 -0.0000
vn 0.9943 0.1067 -0.0000
vn 0.0323 -0.3012 -0.9530
vn -0.2983 -0.0318 0.9540
vn 0.1062 -0.9943 -0.0000
vn -0.1062 0.9943 -0.0000
vn 0.2982 0.0318 -0.9540
vn 0.0289 -0.2708 0.9622
vn 0.9944 0.1060 -0.0000
vn -0.9944 -0.1060 -0.0000
vn -0.0289 0.2708 -0.9622
vt 0.899200 0.020400
vt 0.895700 0.220900
vt 0.895700 0.022100
vt 0.880900 0.213600
vt 0.886500 0.020400
vt 0.886500 0.213600
vt 0.937300 0.022100
vt 0.933800 0.218400
vt 0.933800 0.020400
vt 0.181400 0.479900
vt 0.194800 0.660600
vt 0.181400 0.656900
vt 0.985600 0.918900
vt 0.989100 0.906800
vt 0.989100 0.920600
vt 0.885300 0.845500
vt 0.890900 0.652400
vt 0.890900 0.845500
vt 0.797400 0.462600
vt 0.784100 0.642700
vt 0.784100 0.466400
vt 0.470700 0.523000
vt 0.484100 0.703000
vt 0.470700 0.699300
vt 0.177700 0.970900
vt 0.174200 0.986500
vt 0.174200 0.972700
vt 0.855600 0.846500
vt 0.861200 0.652400
vt 0.861200 0.846500
vt 0.292900 0.480200
vt 0.279600 0.661100
vt 0.279600 0.483900
vt 0.856800 0.020400
vt 0.851200 0.214600
vt 0.851200 0.020400
vt 0.888600 0.985300
vt 0.894200 0.971900
vt 0.894200 0.985300
vt 0.380300 0.272100
vt 0.392200 0.467500
vt 0.380300 0.471200
vt 0.291400 0.272200
vt 0.279600 0.467200
vt 0.279600 0.268500
vt 0.912900 0.851400
vt 0.916300 0.654000
vt 0.916300 0.853100
vt 0.345500 0.972800
vt 0.339800 0.986200
vt 0.339800 0.972800
vt 0.181400 0.272700
vt 0.193300 0.466900
vt 0.181400 0.470600
vt 0.925500 0.851700
vt 0.929000 0.652400
vt 0.929000 0.850000
vt 0.089200 0.719400
vt 0.101000 0.525500
vt 0.101000 0.723200
vt 0.873800 0.931100
vt 0.892100 0.956800
vt 0.873800 0.962700
vt 0.209400 0.868900
vt 0.226400 0.915100
vt 0.209400 0.915100
vt 0.159100 0.924100
vt 0.177500 0.961700
vt 0.159100 0.956000
vt 0.176200 0.914900
vt 0.159100 0.868700
vt 0.176200 0.868700
vt 0.703400 0.907800
vt 0.683900 0.861600
vt 0.703400 0.861600
vt 0.568300 0.927600
vt 0.586900 0.964500
vt 0.568300 0.959100
vt 0.651000 0.862300
vt 0.670400 0.908500
vt 0.651000 0.908500
vt 0.209400 0.929700
vt 0.228000 0.956200
vt 0.209400 0.961500
vt 0.973200 0.020400
vt 0.983500 0.036700
vt 0.973200 0.039700
vt 0.440900 0.967000
vt 0.428400 0.981300
vt 0.428400 0.965600
vt 0.973300 0.067500
vt 0.983500 0.083800
vt 0.973300 0.086800
vt 0.319400 0.984100
vt 0.306800 0.975800
vt 0.319400 0.968500
vt 0.816700 0.444900
vt 0.803900 0.453300
vt 0.803900 0.437900
vt 0.765300 0.957400
vt 0.755200 0.973600
vt 0.755200 0.954200
vt 0.124600 0.975800
vt 0.111800 0.984200
vt 0.111800 0.968800
vt 0.972300 0.968300
vt 0.982400 0.952100
vt 0.982400 0.971500
vt 0.970500 0.630200
vt 0.963300 0.637800
vt 0.963300 0.630200
vt 0.984500 0.630200
vt 0.979700 0.640200
vt 0.979700 0.631700
vt 0.946800 0.637700
vt 0.954100 0.630200
vt 0.954100 0.637800
vt 0.901200 0.243400
vt 0.908500 0.234800
vt 0.908500 0.243400
vt 0.513400 0.985200
vt 0.518200 0.975300
vt 0.518200 0.983900
vt 0.911700 0.530000
vt 0.904500 0.538700
vt 0.904500 0.530000
vt 0.533800 0.983800
vt 0.538600 0.976600
vt 0.538600 0.985200
vt 0.547800 0.983800
vt 0.552500 0.976800
vt 0.552500 0.985300
vt 0.504200 0.987300
vt 0.500800 0.981300
vt 0.504200 0.975300
vt 0.718200 0.745100
vt 0.718200 0.761500
vt 0.715700 0.753300
vt 0.891100 0.251000
vt 0.886400 0.245900
vt 0.891100 0.230200
vt 0.165000 0.970900
vt 0.165000 0.987700
vt 0.159100 0.977200
vt 0.608200 0.247600
vt 0.619600 0.239000
vt 0.619600 0.259800
vt 0.717900 0.911600
vt 0.717900 0.925800
vt 0.715100 0.917800
vt 0.904700 0.254300
vt 0.901200 0.451700
vt 0.901200 0.252700
vt 0.551300 0.470200
vt 0.592500 0.277600
vt 0.592500 0.476300
vt 0.873800 0.985300
vt 0.879400 0.971900
vt 0.879400 0.985300
vt 0.972000 0.807900
vt 0.977600 0.794500
vt 0.977600 0.807900
vt 0.903600 0.652400
vt 0.900200 0.852800
vt 0.900200 0.654000
vt 0.568300 0.875600
vt 0.571800 0.675200
vt 0.571800 0.874000
vt 0.911900 0.022100
vt 0.908400 0.219500
vt 0.908400 0.020400
vt 0.764700 0.789600
vt 0.759300 0.751100
vt 0.764700 0.749400
vt 0.759300 0.840900
vt 0.764700 0.802400
vt 0.764700 0.842700
vt 0.542100 0.470500
vt 0.500800 0.277400
vt 0.542100 0.271400
vt 0.892000 0.453400
vt 0.886400 0.260200
vt 0.892000 0.260200
vt 0.692600 0.639000
vt 0.651000 0.466800
vt 0.692600 0.462600
vt 0.989400 0.510400
vt 0.985900 0.522600
vt 0.985900 0.508700
vt 0.596200 0.988000
vt 0.599600 0.975800
vt 0.599600 0.989700
vt 0.871700 0.020400
vt 0.866100 0.213600
vt 0.866100 0.020400
vt 0.870500 0.845500
vt 0.876100 0.652400
vt 0.876100 0.845500
vt 0.877200 0.260200
vt 0.871600 0.453400
vt 0.871600 0.260200
vt 0.976400 0.940300
vt 0.972700 0.905000
vt 0.976400 0.905900
vt 0.761600 0.945000
vt 0.765300 0.909800
vt 0.765300 0.944100
vt 0.698500 0.275800
vt 0.657000 0.447200
vt 0.657000 0.271400
vt 0.917400 0.252700
vt 0.913900 0.452000
vt 0.913900 0.254300
vt 0.601800 0.462600
vt 0.641700 0.666000
vt 0.601800 0.660300
vt 0.568300 0.987100
vt 0.573900 0.973700
vt 0.573900 0.987100
vt 0.355800 0.986200
vt 0.361400 0.972800
vt 0.361400 0.986200
vt 0.926600 0.450600
vt 0.930100 0.254300
vt 0.930100 0.452300
vt 0.941700 0.654000
vt 0.938200 0.850300
vt 0.938200 0.652400
vt 0.921100 0.219700
vt 0.924600 0.020400
vt 0.924600 0.218100
vt 0.484600 0.834900
vt 0.489900 0.871900
vt 0.484600 0.873700
vt 0.712600 0.900500
vt 0.717900 0.863500
vt 0.717900 0.902300
vt 0.670300 0.047400
vt 0.630400 0.250500
vt 0.630400 0.053300
vt 0.846400 0.652400
vt 0.840800 0.846500
vt 0.840800 0.652400
vt 0.647800 0.271400
vt 0.601800 0.453400
vt 0.601800 0.277000
vt 0.200100 0.672700
vt 0.194500 0.866900
vt 0.194500 0.672700
vt 0.292900 0.670300
vt 0.287300 0.864500
vt 0.287300 0.670300
vt 0.586600 0.973700
vt 0.583100 0.989300
vt 0.583100 0.975400
vt 0.440800 0.892700
vt 0.437300 0.908300
vt 0.437300 0.894400
vt 0.383500 0.826500
vt 0.389100 0.632400
vt 0.389100 0.826500
vt 0.437300 0.837100
vt 0.440500 0.881200
vt 0.437300 0.883500
vt 0.764700 0.854200
vt 0.761600 0.898300
vt 0.761600 0.852000
vt 0.575200 0.047400
vt 0.621200 0.229800
vt 0.575200 0.224500
vt 0.899200 0.219200
vt 0.880900 0.020400
vt 0.937300 0.220100
vt 0.194800 0.483500
vt 0.985600 0.905000
vt 0.885300 0.652400
vt 0.797400 0.639000
vt 0.484100 0.526700
vt 0.177700 0.984800
vt 0.855600 0.652400
vt 0.292900 0.657400
vt 0.856800 0.214600
vt 0.888600 0.971900
vt 0.392200 0.268400
vt 0.291400 0.471000
vt 0.912900 0.652400
vt 0.345500 0.986200
vt 0.193300 0.268900
vt 0.925500 0.654000
vt 0.089200 0.521800
vt 0.892100 0.925300
vt 0.226400 0.869000
vt 0.177500 0.929900
vt 0.159100 0.914900
vt 0.683900 0.907800
vt 0.586900 0.932900
vt 0.670400 0.862300
vt 0.228000 0.924300
vt 0.983500 0.028200
vt 0.440900 0.974000
vt 0.983500 0.075300
vt 0.306800 0.982800
vt 0.816700 0.451800
vt 0.765300 0.966000
vt 0.124600 0.982700
vt 0.972300 0.959700
vt 0.970500 0.637700
vt 0.984500 0.638700
vt 0.946800 0.630200
vt 0.901200 0.234800
vt 0.513400 0.976600
vt 0.911700 0.538700
vt 0.533800 0.975300
vt 0.547800 0.975300
vt 0.904700 0.453400
vt 0.551300 0.271400
vt 0.873800 0.971900
vt 0.972000 0.794500
vt 0.903600 0.851100
vt 0.568300 0.676900
vt 0.911900 0.221200
vt 0.759300 0.791400
vt 0.759300 0.800700
vt 0.500800 0.476500
vt 0.886400 0.453400
vt 0.651000 0.643100
vt 0.989400 0.524300
vt 0.596200 0.974100
vt 0.871700 0.213600
vt 0.870500 0.652400
vt 0.877200 0.453400
vt 0.972700 0.939500
vt 0.761600 0.910600
vt 0.698500 0.451600
vt 0.917400 0.450300
vt 0.641700 0.468300
vt 0.568300 0.973700
vt 0.355800 0.972800
vt 0.926600 0.252700
vt 0.941700 0.852000
vt 0.921100 0.022100
vt 0.489900 0.833000
vt 0.712600 0.861600
vt 0.670300 0.244600
vt 0.846400 0.846500
vt 0.647800 0.447900
vt 0.200100 0.866900
vt 0.292900 0.864500
vt 0.586600 0.987500
vt 0.440800 0.906500
vt 0.383500 0.632400
vt 0.440500 0.834900
vt 0.764700 0.900600
vt 0.621200 0.052700
s 0
f 1/1/1 69/2/1 65/3/1
f 4/4/2 81/5/2 77/6/2
f 6/7/3 93/8/3 89/9/3
f 8/10/4 22/11/4 21/12/4
f 17/13/5 83/14/5 81/15/5
f 12/16/6 84/17/6 80/18/6
f 11/19/7 20/20/7 12/21/7
f 4/22/4 18/23/4 17/24/4
f 21/25/8 106/26/8 107/27/8
f 8/28/9 107/29/9 103/30/9
f 16/31/7 23/32/7 15/33/7
f 15/34/10 105/35/10 101/36/10
f 25/37/11 71/38/11 69/39/11
f 1/40/4 26/41/4 25/42/4
f 9/43/7 28/44/7 10/45/7
f 10/46/12 72/47/12 68/48/12
f 29/49/13 95/50/13 93/51/13
f 6/52/4 30/53/4 29/54/4
f 14/55/14 96/56/14 92/57/14
f 13/58/7 32/59/7 14/60/7
f 47/61/15 40/62/15 39/63/15
f 45/64/16 38/65/16 37/66/16
f 43/67/17 36/68/17 35/69/17
f 41/70/18 34/71/18 33/72/18
f 48/73/19 33/74/19 40/75/19
f 46/76/20 39/77/20 38/78/20
f 44/79/21 37/80/21 36/81/21
f 42/82/22 35/83/22 34/84/22
f 40/85/4 55/86/4 39/87/4
f 54/88/4 37/89/4 38/90/4
f 36/91/4 51/92/4 35/93/4
f 34/94/4 49/95/4 33/96/4
f 49/97/4 40/98/4 33/99/4
f 55/100/4 38/101/4 39/102/4
f 53/103/4 36/104/4 37/105/4
f 51/106/4 34/107/4 35/108/4
f 62/109/16 53/110/16 54/111/16
f 60/112/17 51/113/17 52/114/17
f 58/115/18 49/116/18 50/117/18
f 57/118/19 56/119/19 49/120/19
f 63/121/20 54/122/20 55/123/20
f 61/124/21 52/125/21 53/126/21
f 59/127/22 50/128/22 51/129/22
f 64/130/15 55/131/15 56/132/15
f 60/133/4 61/134/4 62/135/4
f 60/136/4 58/137/4 59/138/4
f 57/139/4 58/140/4 60/141/4
f 63/142/4 60/143/4 62/144/4
f 63/145/4 57/146/4 60/147/4
f 57/148/4 63/149/4 64/150/4
f 67/151/12 26/152/12 3/153/12
f 68/154/23 76/155/23 74/156/23
f 70/157/11 28/158/11 27/159/11
f 69/160/11 72/161/11 70/162/11
f 66/163/1 27/164/1 9/165/1
f 65/166/1 70/167/1 66/168/1
f 74/169/12 75/170/12 73/171/12
f 72/172/24 75/173/24 76/174/24
f 68/175/25 73/176/25 67/177/25
f 67/178/26 75/179/26 71/180/26
f 5/181/6 83/182/6 18/183/6
f 84/184/27 86/185/27 80/186/27
f 82/187/5 20/188/5 19/189/5
f 81/190/5 84/191/5 82/192/5
f 78/193/2 19/194/2 11/195/2
f 77/196/2 82/197/2 78/198/2
f 86/199/6 87/200/6 85/201/6
f 84/202/28 87/203/28 88/204/28
f 80/205/29 85/206/29 79/207/29
f 83/208/30 85/209/30 87/210/30
f 91/211/14 30/212/14 7/213/14
f 96/214/31 98/215/31 92/216/31
f 94/217/13 32/218/13 31/219/13
f 93/220/13 96/221/13 94/222/13
f 90/223/3 31/224/3 13/225/3
f 89/226/3 94/227/3 90/228/3
f 98/229/14 99/230/14 97/231/14
f 96/232/32 99/233/32 100/234/32
f 92/235/33 97/236/33 91/237/33
f 95/238/34 97/239/34 99/240/34
f 102/241/10 22/242/10 2/243/10
f 101/244/35 111/245/35 109/246/35
f 104/247/9 24/248/9 16/249/9
f 103/250/9 108/251/9 104/252/9
f 108/253/8 23/254/8 24/255/8
f 107/256/8 105/257/8 108/258/8
f 109/259/10 112/260/10 110/261/10
f 105/262/36 112/263/36 111/264/36
f 101/265/37 110/266/37 102/267/37
f 102/268/38 112/269/38 106/270/38
f 1/1/1 25/271/1 69/2/1
f 4/4/2 17/272/2 81/5/2
f 6/7/3 29/273/3 93/8/3
f 8/10/4 2/274/4 22/11/4
f 17/13/5 18/275/5 83/14/5
f 12/16/6 20/276/6 84/17/6
f 11/19/7 19/277/7 20/20/7
f 4/22/4 5/278/4 18/23/4
f 21/25/8 22/279/8 106/26/8
f 8/28/9 21/280/9 107/29/9
f 16/31/7 24/281/7 23/32/7
f 15/34/10 23/282/10 105/35/10
f 25/37/11 26/283/11 71/38/11
f 1/40/4 3/284/4 26/41/4
f 9/43/7 27/285/7 28/44/7
f 10/46/12 28/286/12 72/47/12
f 29/49/13 30/287/13 95/50/13
f 6/52/4 7/288/4 30/53/4
f 14/55/14 32/289/14 96/56/14
f 13/58/7 31/290/7 32/59/7
f 47/61/15 48/291/15 40/62/15
f 45/64/16 46/292/16 38/65/16
f 43/67/17 44/293/17 36/68/17
f 41/70/18 42/294/18 34/71/18
f 48/73/19 41/295/19 33/74/19
f 46/76/20 47/296/20 39/77/20
f 44/79/21 45/297/21 37/80/21
f 42/82/22 43/298/22 35/83/22
f 40/85/4 56/299/4 55/86/4
f 54/88/4 53/300/4 37/89/4
f 36/91/4 52/301/4 51/92/4
f 34/94/4 50/302/4 49/95/4
f 49/97/4 56/303/4 40/98/4
f 55/100/4 54/304/4 38/101/4
f 53/103/4 52/305/4 36/104/4
f 51/106/4 50/306/4 34/107/4
f 62/109/16 61/307/16 53/110/16
f 60/112/17 59/308/17 51/113/17
f 58/115/18 57/309/18 49/116/18
f 57/118/19 64/310/19 56/119/19
f 63/121/20 62/311/20 54/122/20
f 61/124/21 60/312/21 52/125/21
f 59/127/22 58/313/22 50/128/22
f 64/130/15 63/314/15 55/131/15
f 67/151/12 71/315/12 26/152/12
f 68/154/23 72/316/23 76/155/23
f 70/157/11 72/317/11 28/158/11
f 69/160/11 71/318/11 72/161/11
f 66/163/1 70/319/1 27/164/1
f 65/166/1 69/320/1 70/167/1
f 74/169/12 76/321/12 75/170/12
f 72/172/24 71/322/24 75/173/24
f 68/175/25 74/323/25 73/176/25
f 67/178/26 73/324/26 75/179/26
f 5/181/6 79/325/6 83/182/6
f 84/184/27 88/326/27 86/185/27
f 82/187/5 84/327/5 20/188/5
f 81/190/5 83/328/5 84/191/5
f 78/193/2 82/329/2 19/194/2
f 77/196/2 81/330/2 82/197/2
f 86/199/6 88/331/6 87/200/6
f 84/202/28 83/332/28 87/203/28
f 80/205/29 86/333/29 85/206/29
f 83/208/30 79/334/30 85/209/30
f 91/211/14 95/335/14 30/212/14
f 96/214/31 100/336/31 98/215/31
f 94/217/13 96/337/13 32/218/13
f 93/220/13 95/338/13 96/221/13
f 90/223/3 94/339/3 31/224/3
f 89/226/3 93/340/3 94/227/3
f 98/229/14 100/341/14 99/230/14
f 96/232/32 95/342/32 99/233/32
f 92/235/33 98/343/33 97/236/33
f 95/238/34 91/344/34 97/239/34
f 102/241/10 106/345/10 22/242/10
f 101/244/35 105/346/35 111/245/35
f 104/247/9 108/347/9 24/248/9
f 103/250/9 107/348/9 108/251/9
f 108/253/8 105/349/8 23/254/8
f 107/256/8 106/350/8 105/257/8
f 109/259/10 111/351/10 112/260/10
f 105/262/36 106/352/36 112/263/36
f 101/265/37 109/353/37 110/266/37
f 102/268/38 110/354/38 112/269/38
